<svg version="1.1" id="Layer_1" xmlns="http://www.w3.org/2000/svg" xmlns:xlink="http://www.w3.org/1999/xlink" x="0px" y="0px"
	 width="100%" viewBox="0 0 232 228" enable-background="new 0 0 232 228" xml:space="preserve">
<path fill="#FDFDFE" opacity="1.000000" stroke="none" 
	d="
M134.000000,229.000000 
	C89.333336,229.000000 45.166672,229.000000 1.000006,229.000000 
	C1.000004,153.000000 1.000004,77.000015 1.000002,1.000016 
	C78.333321,1.000011 155.666641,1.000011 232.999969,1.000005 
	C232.999985,76.999985 232.999985,152.999969 233.000000,228.999969 
	C200.166672,229.000000 167.333328,229.000000 134.000000,229.000000 
M109.155678,75.614426 
	C112.920921,78.717751 116.686165,81.821083 120.896751,85.291473 
	C121.788902,84.826035 123.316704,83.796257 124.997826,83.195709 
	C129.977676,81.416748 130.354233,78.615562 128.103088,74.064644 
	C123.523849,64.807251 117.136246,57.338200 109.257057,50.645557 
	C100.518715,43.223171 90.757317,39.275784 79.564789,38.182941 
	C57.601326,36.038422 39.376499,44.842640 22.571667,57.689465 
	C16.374819,62.426785 16.462929,62.542042 19.056953,71.063225 
	C35.875202,69.487167 53.247574,63.791821 70.053749,74.753403 
	C54.853065,87.690361 42.146507,101.751984 31.379244,117.814377 
	C31.245016,114.458778 31.494371,111.255295 32.086056,108.116341 
	C33.385662,101.221825 33.043495,100.362289 26.203865,96.645836 
	C25.659122,98.223518 24.912222,99.662178 24.674656,101.180527 
	C18.486107,140.733154 30.381834,173.880264 62.097504,198.286621 
	C91.936981,221.249161 125.478218,224.535721 160.368668,210.775024 
	C181.551575,202.420532 197.348221,187.479889 208.511154,167.728806 
	C210.849884,163.590775 212.274796,158.936264 214.683868,154.063980 
	C214.809265,153.368454 214.934662,152.672928 215.241684,151.784607 
	C215.241684,151.784607 215.116531,151.551147 215.684082,151.090042 
	C215.803238,150.388977 215.922379,149.687912 216.480225,148.428574 
	C216.973663,146.616623 217.467102,144.804688 218.227188,142.405853 
	C218.476227,140.610214 218.725266,138.814575 219.227661,136.353287 
	C219.393646,135.194931 219.559631,134.036575 220.137604,132.198944 
	C219.722748,121.814476 219.307892,111.430000 218.954254,100.347031 
	C218.625000,99.227386 218.295731,98.107742 217.995804,96.305794 
	C217.702469,95.988571 217.409134,95.671349 217.347992,94.621300 
	C217.119797,93.487236 216.984024,92.325104 216.649490,91.223320 
	C211.832169,75.357819 203.657318,61.708179 191.806808,49.858685 
	C182.312057,40.364761 171.580353,33.319321 159.232834,28.649078 
	C153.439362,26.457798 147.206451,25.455193 141.234100,23.704418 
	C128.865204,20.078520 116.381119,21.790188 103.911346,22.710369 
	C102.712700,22.798822 101.546913,23.332432 99.831909,23.807211 
	C103.757362,27.557632 105.986221,32.212341 112.452179,30.682085 
	C122.615120,28.276884 132.969269,28.722368 143.163696,30.864141 
	C152.567230,32.839756 161.421631,36.225212 169.335907,41.927097 
	C167.089218,45.610508 165.103104,44.107059 162.808685,42.811634 
	C157.134064,39.607750 151.285370,39.527203 145.788422,43.146000 
	C141.049515,46.265762 138.964676,50.877121 139.153030,56.790550 
	C142.211258,56.790550 144.835419,56.790550 147.720108,56.790550 
	C148.347427,53.008694 149.553574,49.786236 154.250443,49.477135 
	C159.621811,49.123642 161.454453,52.491478 162.347595,56.845070 
	C165.306885,56.845070 167.946793,56.845070 170.547302,56.845070 
	C172.524063,50.083305 177.016785,47.092548 181.083298,50.482929 
	C186.458664,54.964512 190.971069,60.481133 196.181030,65.892097 
	C185.621780,72.016266 177.306091,78.922539 171.247009,88.096123 
	C165.394730,96.956596 165.523071,95.371536 173.750641,101.961014 
	C173.859512,102.048225 174.075027,102.002296 173.627563,101.958527 
	C178.733810,99.207840 183.406143,96.690895 187.815979,94.315369 
	C183.095261,105.799423 178.333267,116.660614 174.182083,127.750427 
	C171.642822,134.533997 172.064056,134.691681 164.456528,133.485138 
	C160.067963,121.199402 151.959442,114.512215 137.419525,116.431252 
	C127.619354,117.724724 121.849243,124.687538 118.064003,134.008835 
	C99.698044,134.059982 81.332085,134.111115 62.787655,133.342422 
	C66.445854,117.893845 73.609764,103.991188 81.664291,89.766373 
	C82.832199,91.696373 83.892769,93.004578 84.484306,94.498512 
	C88.385704,104.351479 92.123856,114.269470 96.076965,124.101227 
	C96.789215,125.872643 98.079765,128.554306 99.396324,128.740173 
	C104.805153,129.503738 110.284561,124.803322 111.115776,119.338539 
	C111.565025,116.385010 111.913422,113.413269 112.211823,110.440170 
	C113.391960,98.681946 111.577240,87.299751 108.153450,75.845718 
	C108.153450,75.845718 108.469421,75.503960 109.155678,75.614426 
z"/>
<path fill="#3877D3" opacity="1.000000" stroke="none" 
	d="
M217.960541,142.992737 
	C217.467102,144.804688 216.973663,146.616623 215.981934,148.936874 
	C215.361267,150.147171 215.238907,150.849152 215.116547,151.551147 
	C215.116531,151.551147 215.241684,151.784607 214.869400,152.105835 
	C214.371689,153.124634 214.246246,153.822189 214.120819,154.519745 
	C212.274796,158.936264 210.849884,163.590775 208.511154,167.728806 
	C197.348221,187.479889 181.551575,202.420532 160.368668,210.775024 
	C125.478218,224.535721 91.936981,221.249161 62.097504,198.286621 
	C30.381834,173.880264 18.486107,140.733154 24.674656,101.180527 
	C24.912222,99.662178 25.659122,98.223518 26.203865,96.645836 
	C33.043495,100.362289 33.385662,101.221825 32.086056,108.116341 
	C31.494371,111.255295 31.245016,114.458778 31.379244,117.814377 
	C42.146507,101.751984 54.853065,87.690361 70.053749,74.753403 
	C53.247574,63.791821 35.875202,69.487167 19.056953,71.063225 
	C16.462929,62.542042 16.374819,62.426785 22.571667,57.689465 
	C39.376499,44.842640 57.601326,36.038422 79.564789,38.182941 
	C90.757317,39.275784 100.518715,43.223171 109.257057,50.645557 
	C117.136246,57.338200 123.523849,64.807251 128.103088,74.064644 
	C130.354233,78.615562 129.977676,81.416748 124.997826,83.195709 
	C123.316704,83.796257 121.788902,84.826035 120.896751,85.291473 
	C116.686165,81.821083 112.920921,78.717751 108.626266,75.406540 
	C107.820374,75.288818 107.543900,75.378990 107.267433,75.469162 
	C107.451561,75.702866 107.635696,75.936569 107.819832,76.170273 
	C111.577240,87.299751 113.391960,98.681946 112.211823,110.440170 
	C111.913422,113.413269 111.565025,116.385010 111.115776,119.338539 
	C110.284561,124.803322 104.805153,129.503738 99.396324,128.740173 
	C98.079765,128.554306 96.789215,125.872643 96.076965,124.101227 
	C92.123856,114.269470 88.385704,104.351479 84.484306,94.498512 
	C83.892769,93.004578 82.832199,91.696373 81.664291,89.766373 
	C73.609764,103.991188 66.445854,117.893845 63.000507,134.130859 
	C64.070702,135.278976 64.926865,135.949158 65.785568,135.952423 
	C82.401535,136.015884 99.018089,136.040039 115.633377,135.917068 
	C116.760727,135.908737 117.878998,134.673080 119.001495,134.008224 
	C121.849243,124.687538 127.619354,117.724724 137.419525,116.431252 
	C151.959442,114.512215 160.067963,121.199402 164.456528,133.485138 
	C172.064056,134.691681 171.642822,134.533997 174.182083,127.750427 
	C178.333267,116.660614 183.095261,105.799423 187.815979,94.315369 
	C183.406143,96.690895 178.733810,99.207840 173.627563,101.958527 
	C174.075027,102.002296 173.859512,102.048225 173.750641,101.961014 
	C165.523071,95.371536 165.394730,96.956596 171.247009,88.096123 
	C177.306091,78.922539 185.621780,72.016266 196.181030,65.892097 
	C190.971069,60.481133 186.458664,54.964512 181.083298,50.482929 
	C177.016785,47.092548 172.524063,50.083305 170.547302,56.845070 
	C167.946793,56.845070 165.306885,56.845070 162.347595,56.845070 
	C161.454453,52.491478 159.621811,49.123642 154.250443,49.477135 
	C149.553574,49.786236 148.347427,53.008694 147.720108,56.790550 
	C144.835419,56.790550 142.211258,56.790550 139.153030,56.790550 
	C138.964676,50.877121 141.049515,46.265762 145.788422,43.146000 
	C151.285370,39.527203 157.134064,39.607750 162.808685,42.811634 
	C165.103104,44.107059 167.089218,45.610508 169.335907,41.927097 
	C161.421631,36.225212 152.567230,32.839756 143.163696,30.864141 
	C132.969269,28.722368 122.615120,28.276884 112.452179,30.682085 
	C105.986221,32.212341 103.757362,27.557632 99.831909,23.807211 
	C101.546913,23.332432 102.712700,22.798822 103.911346,22.710369 
	C116.381119,21.790188 128.865204,20.078520 141.234100,23.704418 
	C147.206451,25.455193 153.439362,26.457798 159.232834,28.649078 
	C171.580353,33.319321 182.312057,40.364761 191.806808,49.858685 
	C203.657318,61.708179 211.832169,75.357819 216.649490,91.223320 
	C216.984024,92.325104 217.119797,93.487236 217.271088,95.309433 
	C217.451614,96.327751 217.709045,96.657928 217.966461,96.988098 
	C218.295731,98.107742 218.625000,99.227386 218.654724,100.972000 
	C218.565750,107.962471 218.736313,114.329643 219.001266,120.692886 
	C219.170517,124.757675 219.479355,128.816650 219.725616,132.878220 
	C219.559631,134.036575 219.393646,135.194931 218.828003,136.894180 
	C218.272415,139.287628 218.116470,141.140182 217.960541,142.992737 
M155.275696,134.228012 
	C155.166626,133.325912 155.341705,132.244232 154.903198,131.550323 
	C151.619049,126.353394 146.721146,123.637077 140.697357,124.332771 
	C134.626984,125.033859 129.711136,127.938950 128.300735,135.187973 
	C136.685532,135.432388 145.069931,135.696960 153.456192,135.870361 
	C153.952332,135.880630 154.463623,135.158005 155.275696,134.228012 
M34.843246,60.294712 
	C37.339264,60.219807 39.851749,60.303066 42.328705,60.045128 
	C63.394417,57.851479 78.482513,66.930275 88.289276,85.053001 
	C93.756882,95.157043 98.291374,105.766014 103.345551,116.355240 
	C104.613091,106.661095 104.812904,96.963051 102.581512,87.271095 
	C100.333168,77.505463 95.286842,69.177414 88.602478,61.676743 
	C88.974274,61.192108 89.346062,60.707470 89.717857,60.222836 
	C98.078949,63.046696 106.440041,65.870560 115.677643,68.990448 
	C109.742409,60.371948 102.562996,53.613232 93.101341,49.930672 
	C71.537567,41.537853 52.105289,47.153934 33.757923,60.125652 
	C33.822895,60.065365 33.887863,60.005074 34.843246,60.294712 
M114.303978,176.192703 
	C121.884285,176.750473 129.460358,177.672302 137.046127,177.760818 
	C144.238953,177.844772 151.462296,177.263351 158.631836,176.561890 
	C162.158966,176.216782 165.551926,174.604492 169.080811,174.151794 
	C176.637604,173.182373 183.961136,171.865204 190.063675,166.770691 
	C193.376373,164.005188 197.005096,161.613312 200.269104,158.795563 
	C204.988373,154.721542 208.949677,150.109161 208.878342,142.893082 
	C202.380051,142.893082 195.386871,141.364502 189.692688,143.425232 
	C185.833710,144.821823 183.799866,151.261627 180.941238,155.458389 
	C170.164001,151.517441 170.164001,151.517441 170.633194,142.679184 
	C168.987427,142.679184 167.374329,142.679184 165.761230,142.679184 
	C132.109497,142.679352 98.457626,142.646164 64.806351,142.772141 
	C63.008347,142.778870 59.979450,143.776199 59.655762,144.917252 
	C58.747055,148.120621 55.969406,151.666916 59.716984,155.021057 
	C64.842712,159.608658 69.795021,164.392303 74.983025,168.906479 
	C76.281830,170.036606 78.132568,170.868729 79.840080,171.138260 
	C91.003181,172.900574 102.196663,174.470566 114.303978,176.192703 
M185.280807,184.766861 
	C187.323990,182.506577 189.367172,180.246277 191.410355,177.985992 
	C180.854660,182.764542 171.232880,188.295959 161.084610,192.580276 
	C153.404968,195.822433 145.184265,198.758987 136.976654,199.594269 
	C110.738617,202.264511 89.216202,191.096420 69.847473,174.618774 
	C65.396782,170.832428 60.737030,167.291809 54.693657,162.453293 
	C54.693657,169.251740 54.582977,174.689224 54.784981,180.115051 
	C54.826485,181.229752 55.855507,182.481979 56.736420,183.364182 
	C65.453903,192.094437 75.051414,199.496124 86.819252,203.816010 
	C123.199120,217.170792 155.889603,211.379974 185.280807,184.766861 
M35.322609,151.040070 
	C38.576900,157.518387 41.831192,163.996689 45.246731,170.795990 
	C49.394161,154.352036 52.251244,138.812134 57.339764,124.040924 
	C62.365440,109.452156 69.647003,95.640511 76.368027,80.522774 
	C74.016724,81.898628 72.370453,82.467674 71.257690,83.573547 
	C59.017689,95.737740 47.410484,108.356659 37.880962,122.929115 
	C31.953644,131.993118 30.090433,140.565918 35.322609,151.040070 
M194.769623,122.273994 
	C199.493118,117.135368 204.249954,112.026665 208.912384,106.833214 
	C209.861984,105.775444 211.259689,104.259918 211.075241,103.193237 
	C210.284134,98.617699 208.979187,94.131004 207.816971,89.431847 
	C192.085968,97.222992 178.264069,132.795685 181.266907,139.659454 
	C185.602753,134.064865 189.960129,128.442490 194.769623,122.273994 
M153.273560,183.960251 
	C134.772903,183.960251 116.272240,183.960251 98.753853,183.960251 
	C116.985970,194.540329 146.105515,195.028152 158.975906,183.927444 
	C157.021622,183.927444 155.592545,183.927444 153.273560,183.960251 
M207.428116,134.626541 
	C208.905365,133.924149 211.550461,133.379013 211.669662,132.493774 
	C212.423279,126.896858 212.617249,121.224594 212.995941,115.577202 
	C212.539963,115.474670 212.084000,115.372139 211.628021,115.269608 
	C206.200516,121.521095 199.741547,126.950401 195.482635,134.133362 
	C195.843552,134.694885 196.204468,135.256393 196.565384,135.817917 
	C199.901550,135.457825 203.237701,135.097733 207.428116,134.626541 
M189.966568,80.455223 
	C187.410172,82.757759 184.853775,85.060287 181.192993,88.357536 
	C190.333252,87.095604 197.962952,86.042221 206.190155,84.906342 
	C204.114166,80.749130 202.367096,77.250549 200.321167,73.153542 
	C196.722382,75.677681 193.628326,77.847801 189.966568,80.455223 
z"/>
<path fill="#256CD1" opacity="1.000000" stroke="none" 
	d="
M118.532745,134.008530 
	C117.878998,134.673080 116.760727,135.908737 115.633377,135.917068 
	C99.018089,136.040039 82.401535,136.015884 65.785568,135.952423 
	C64.926865,135.949158 64.070702,135.278976 63.089745,134.540771 
	C81.332085,134.111115 99.698044,134.059982 118.532745,134.008530 
z"/>
<path fill="#2779D4" opacity="1.000000" stroke="none" 
	d="
M219.931610,132.538574 
	C219.479355,128.816650 219.170517,124.757675 219.001266,120.692886 
	C218.736313,114.329643 218.565750,107.962471 218.624115,101.321243 
	C219.307892,111.430000 219.722748,121.814476 219.931610,132.538574 
z"/>
<path fill="#2779D4" opacity="1.000000" stroke="none" 
	d="
M218.093857,142.699295 
	C218.116470,141.140182 218.272415,139.287628 218.701324,137.227005 
	C218.725266,138.814575 218.476227,140.610214 218.093857,142.699295 
z"/>
<path fill="#2779D4" opacity="1.000000" stroke="none" 
	d="
M215.400314,151.320587 
	C215.238907,150.849152 215.361267,150.147171 215.762573,149.216003 
	C215.922379,149.687912 215.803238,150.388977 215.400314,151.320587 
z"/>
<path fill="#2779D4" opacity="1.000000" stroke="none" 
	d="
M214.402344,154.291870 
	C214.246246,153.822189 214.371689,153.124634 214.778595,152.202240 
	C214.934662,152.672928 214.809265,153.368454 214.402344,154.291870 
z"/>
<path fill="#2779D4" opacity="1.000000" stroke="none" 
	d="
M217.981140,96.646950 
	C217.709045,96.657928 217.451614,96.327751 217.154999,95.675850 
	C217.409134,95.671349 217.702469,95.988571 217.981140,96.646950 
z"/>
<path fill="#FCFDFE" opacity="1.000000" stroke="none" 
	d="
M113.842094,176.148056 
	C102.196663,174.470566 91.003181,172.900574 79.840080,171.138260 
	C78.132568,170.868729 76.281830,170.036606 74.983025,168.906479 
	C69.795021,164.392303 64.842712,159.608658 59.716984,155.021057 
	C55.969406,151.666916 58.747055,148.120621 59.655762,144.917252 
	C59.979450,143.776199 63.008347,142.778870 64.806351,142.772141 
	C98.457626,142.646164 132.109497,142.679352 165.761230,142.679184 
	C167.374329,142.679184 168.987427,142.679184 170.633194,142.679184 
	C170.164001,151.517441 170.164001,151.517441 180.941238,155.458389 
	C183.799866,151.261627 185.833710,144.821823 189.692688,143.425232 
	C195.386871,141.364502 202.380051,142.893082 208.878342,142.893082 
	C208.949677,150.109161 204.988373,154.721542 200.269104,158.795563 
	C197.005096,161.613312 193.376373,164.005188 190.063675,166.770691 
	C183.961136,171.865204 176.637604,173.182373 169.080811,174.151794 
	C165.551926,174.604492 162.158966,176.216782 158.631836,176.561890 
	C151.462296,177.263351 144.238953,177.844772 137.046127,177.760818 
	C129.460358,177.672302 121.884285,176.750473 113.842094,176.148056 
z"/>
<path fill="#F8FAFD" opacity="1.000000" stroke="none" 
	d="
M185.013397,185.000458 
	C155.889603,211.379974 123.199120,217.170792 86.819252,203.816010 
	C75.051414,199.496124 65.453903,192.094437 56.736420,183.364182 
	C55.855507,182.481979 54.826485,181.229752 54.784981,180.115051 
	C54.582977,174.689224 54.693657,169.251740 54.693657,162.453293 
	C60.737030,167.291809 65.396782,170.832428 69.847473,174.618774 
	C89.216202,191.096420 110.738617,202.264511 136.976654,199.594269 
	C145.184265,198.758987 153.404968,195.822433 161.084610,192.580276 
	C171.232880,188.295959 180.854660,182.764542 191.410355,177.985992 
	C189.367172,180.246277 187.323990,182.506577 185.013397,185.000458 
z"/>
<path fill="#F8FAFD" opacity="1.000000" stroke="none" 
	d="
M34.034809,60.014946 
	C52.105289,47.153934 71.537567,41.537853 93.101341,49.930672 
	C102.562996,53.613232 109.742409,60.371948 115.677643,68.990448 
	C106.440041,65.870560 98.078949,63.046696 89.717857,60.222836 
	C89.346062,60.707470 88.974274,61.192108 88.602478,61.676743 
	C95.286842,69.177414 100.333168,77.505463 102.581512,87.271095 
	C104.812904,96.963051 104.613091,106.661095 103.345551,116.355240 
	C98.291374,105.766014 93.756882,95.157043 88.289276,85.053001 
	C78.482513,66.930275 63.394417,57.851479 42.328705,60.045128 
	C39.851749,60.303066 37.339264,60.219807 34.417000,60.139084 
	C33.990749,59.983456 34.034809,60.014946 34.034809,60.014946 
z"/>
<path fill="#F8FAFD" opacity="1.000000" stroke="none" 
	d="
M35.166382,150.680756 
	C30.090433,140.565918 31.953644,131.993118 37.880962,122.929115 
	C47.410484,108.356659 59.017689,95.737740 71.257690,83.573547 
	C72.370453,82.467674 74.016724,81.898628 76.368027,80.522774 
	C69.647003,95.640511 62.365440,109.452156 57.339764,124.040924 
	C52.251244,138.812134 49.394161,154.352036 45.246731,170.795990 
	C41.831192,163.996689 38.576900,157.518387 35.166382,150.680756 
z"/>
<path fill="#F6F9FD" opacity="1.000000" stroke="none" 
	d="
M194.543564,122.547058 
	C189.960129,128.442490 185.602753,134.064865 181.266907,139.659454 
	C178.264069,132.795685 192.085968,97.222992 207.816971,89.431847 
	C208.979187,94.131004 210.284134,98.617699 211.075241,103.193237 
	C211.259689,104.259918 209.861984,105.775444 208.912384,106.833214 
	C204.249954,112.026665 199.493118,117.135368 194.543564,122.547058 
z"/>
<path fill="#EEF4FB" opacity="1.000000" stroke="none" 
	d="
M153.718506,183.943848 
	C155.592545,183.927444 157.021622,183.927444 158.975906,183.927444 
	C146.105515,195.028152 116.985970,194.540329 98.753853,183.960251 
	C116.272240,183.960251 134.772903,183.960251 153.718506,183.943848 
z"/>
<path fill="#F3F7FC" opacity="1.000000" stroke="none" 
	d="
M128.186996,134.578705 
	C129.711136,127.938950 134.626984,125.033859 140.697357,124.332771 
	C146.721146,123.637077 151.619049,126.353394 154.903198,131.550323 
	C155.341705,132.244232 155.166626,133.325912 154.657181,134.454636 
	C145.421448,134.647064 136.804214,134.612885 128.186996,134.578705 
z"/>
<path fill="#F1F6FC" opacity="1.000000" stroke="none" 
	d="
M207.000992,134.682098 
	C203.237701,135.097733 199.901550,135.457825 196.565384,135.817917 
	C196.204468,135.256393 195.843552,134.694885 195.482635,134.133362 
	C199.741547,126.950401 206.200516,121.521095 211.628021,115.269608 
	C212.084000,115.372139 212.539963,115.474670 212.995941,115.577202 
	C212.617249,121.224594 212.423279,126.896858 211.669662,132.493774 
	C211.550461,133.379013 208.905365,133.924149 207.000992,134.682098 
z"/>
<path fill="#ECF2FA" opacity="1.000000" stroke="none" 
	d="
M190.250427,80.236572 
	C193.628326,77.847801 196.722382,75.677681 200.321167,73.153542 
	C202.367096,77.250549 204.114166,80.749130 206.190155,84.906342 
	C197.962952,86.042221 190.333252,87.095604 181.192993,88.357536 
	C184.853775,85.060287 187.410172,82.757759 190.250427,80.236572 
z"/>
<path fill="#0165CF" opacity="1.000000" stroke="none" 
	d="
M128.243866,134.883331 
	C136.804214,134.612885 145.421448,134.647064 154.503265,134.728836 
	C154.463623,135.158005 153.952332,135.880630 153.456192,135.870361 
	C145.069931,135.696960 136.685532,135.432388 128.243866,134.883331 
z"/>
<path fill="#FDFDFE" opacity="1.000000" stroke="none" 
	d="
M107.986641,76.007996 
	C107.635696,75.936569 107.451561,75.702866 107.267433,75.469162 
	C107.543900,75.378990 107.820374,75.288818 108.283134,75.351303 
	C108.469421,75.503960 108.153450,75.845718 107.986641,76.007996 
z"/>
<path fill="#F8FAFD" opacity="1.000000" stroke="none" 
	d="
M33.971794,59.964119 
	C33.887863,60.005074 33.822895,60.065365 33.896366,60.070297 
	C34.034809,60.014946 33.990749,59.983456 33.971794,59.964119 
z"/>
</svg>